<svg xmlns="http://www.w3.org/2000/svg" version="1.1" xmlns:xlink="http://www.w3.org/1999/xlink" xmlns:svgjs="http://svgjs.com/svgjs" width="100%" height="100%" viewBox="0 0 1000 600"><rect width="1000" height="600" x="0" y="0" fill="#000000"/><g><rect width="333.3333333333333" height="333.3333333333333" rx="13.333333333333334" ry="13.333333333333334" y="178.21794562352198" fill="#daf0ef" transform="matrix(0.8013042060645581,0,0,0.8013042060645583,0,23.642539560612136)" x="155.99572753906253"/><path d="M305.64360743286113 273.904560864902L341.1483003609411 379.53835800629696L377.91473031043216 273.904560864902L361.4241208678033 273.904560864902L361.4241208678033 269.88460802924334L393.7597998816414 269.88460802924334L393.7597998816414 273.904560864902L383.8126173174934 273.904560864902L332.9029956396266 419.8845999700242L315.1506491755867 419.8845999700242L261.27741263347525 273.904560864902L251.56497184075252 273.904560864902L251.56497184075252 269.88460802924334L320.66708080408176 269.88460802924334L320.66708080408176 273.904560864902L305.64360743286113 273.904560864902Z " fill="#065cbf" transform="matrix(0.8013042060645581,0,0,0.8013042060645583,0,23.642539560612136)"/><path d="M625.890088312617 359.02779572800944L572.6623916419252 359.02779572800944L572.6623916419252 352.68976789952575L625.890088312617 352.68976789952575L625.890088312617 359.02779572800944ZM641.7351578838262 273.904560864902L641.7351578838262 269.88460802924334L706.1717741400771 269.88460802924334L706.1717741400771 273.904560864902L694.5520564545237 273.904560864902L694.5520564545237 340.65925211397797L696.2539342973573 340.24845401398363L755.8196587965327 273.904560864902L739.1529930253349 273.904560864902L739.1529930253349 269.88460802924334L776.1248220248232 269.88460802924334L776.1248220248232 273.904560864902L763.4487663678558 273.904560864902L727.093134518359 314.45620187862636L777.7973571462286 413.7519711915376L789.2116757817848 413.7519711915376L789.2116757817848 417.7719240271963L721.4006465612949 417.7719240271963L721.4006465612949 413.7519711915376L731.3184864040147 413.7519711915376L696.4593333473545 346.351740071042L694.5520564545237 346.7918808924645L694.5520564545237 413.7519711915376L706.1717741400771 413.7519711915376L706.1717741400771 417.7719240271963L641.7351578838262 417.7719240271963L641.7351578838262 413.7519711915376L653.3548755693797 413.7519711915376L653.3548755693797 273.904560864902L641.7351578838262 273.904560864902ZM840.9722363810683 368.12403937074066L840.9722363810683 368.12403937074066L847.104865159555 368.12403937074066L847.104865159555 351.8681716995371Q847.104865159555 331.79775024267207 844.8748183310145 324.9315534284814Q842.674114223902 318.0653566142907 836.3360863954183 318.0653566142907L836.3360863954183 318.0653566142907Q832.5215326097568 318.0653566142907 829.4698895812276 320.06066167140597Q826.3889038312702 322.0559667285212 826.3889038312702 325.54775057847286Q826.3889038312702 329.03953442842453 827.6506408526814 332.6193464426607L827.6506408526814 332.6193464426607L832.9323307097511 332.6193464426607Q834.6342085525846 337.0794400997418 834.6342085525846 343.30009704251285Q834.6342085525846 349.5207539852839 829.352518695515 354.0688758066495Q824.0708288384452 358.6169976280151 816.030923167128 358.6169976280151L816.030923167128 358.6169976280151Q797.8677786030936 358.6169976280151 797.8677786030936 341.07005021397225L797.8677786030936 341.07005021397225Q797.8677786030936 315.101741750046 842.0285743524823 315.101741750046L842.0285743524823 315.101741750046Q867.17528661642 315.101741750046 876.77035652343 323.6404736856421Q886.3947691518682 332.20854834266635 886.3947691518682 355.03718561377895L886.3947691518682 355.03718561377895L886.3947691518682 397.9069016203284Q886.3947691518682 408.91042215589033 892.5273979303547 408.91042215589033L892.5273979303547 408.91042215589033Q899.7163646802553 408.91042215589033 900.9781017016664 387.1381228561917L900.9781017016664 387.1381228561917L904.1471156159082 387.3435219061889Q903.2961766944915 405.9468072916457 897.1635479160049 412.9010322701209Q891.0309191375184 419.8845999700242 877.0931264591399 419.8845999700242L877.0931264591399 419.8845999700242Q851.741015145205 419.8845999700242 847.9558040809718 404.2449294488121L847.9558040809718 404.2449294488121Q845.1975882667242 412.2848351201294 839.7104993596572 416.07004618436275Q834.2234104525903 419.8845999700242 823.6600307384509 419.8845999700242L823.6600307384509 419.8845999700242Q792.3806896960267 419.8845999700242 792.3806896960267 394.3270896060922L792.3806896960267 394.3270896060922Q792.3806896960267 379.3329589562998 804.32317731729 373.7284991635202Q816.2656649385533 368.12403937074066 840.9722363810683 368.12403937074066ZM832.5215326097568 394.1216905560951Q832.5215326097568 405.0958683702289 833.6952414668834 408.26488228447073Q834.8396076025819 411.4338961987126 838.1259924025363 411.4338961987126Q841.3830344810627 411.4338961987126 844.2586211810228 406.0348354559302Q847.104865159555 400.66511743457596 847.104865159555 391.1580756918504L847.104865159555 391.1580756918504L847.104865159555 371.4984523349797L845.6083863667186 371.4984523349797Q832.5215326097568 371.4984523349797 832.5215326097568 390.71793487042794L832.5215326097568 390.71793487042794L832.5215326097568 394.1216905560951ZM976.8290365934736 323.1123046999351L976.8290365934736 323.1123046999351Q968.9945299721535 323.1123046999351 963.0966429650923 333.26488631408034Q957.1694132366028 343.4174679282255 957.1694132366028 357.355260606604L957.1694132366028 357.355260606604L957.1694132366028 413.9573702415348L972.1635438863952 413.9573702415348L972.1635438863952 417.7719240271963L906.2597915587362 417.7719240271963L906.2597915587362 413.9573702415348L917.8795092442896 413.9573702415348L917.8795092442896 320.99962875710725L906.2597915587362 320.99962875710725L906.2597915587362 317.2144176928739L957.1694132366028 317.2144176928739L957.1694132366028 337.4902381997361Q959.9276290508504 326.72145943559946 967.7327929507424 320.91160059282277Q975.5379568506344 315.101741750046 985.4851394147823 315.101741750046Q995.4029792575022 315.101741750046 1001.6529789217014 320.70620154282557Q1007.8736358644724 326.281318614177 1007.8736358644724 336.5512711140348Q1007.8736358644724 346.7918808924645 1003.2374858788223 352.2789697995314Q998.571993171744 357.76605870659836 988.976923264734 357.76605870659836Q979.3525106362958 357.76605870659836 974.8043888149302 351.4280308781146Q970.2562669935645 345.0900030496309 973.6600226792317 333.91042618549994L973.6600226792317 333.91042618549994L981.2597875291266 333.91042618549994Q986.5414773861963 323.1123046999351 976.8290365934736 323.1123046999351ZM1021.4006304428567 387.54892095618607L1021.4006304428567 387.54892095618607L1021.4006304428567 320.99962875710725L1009.7809127573032 320.99962875710725L1009.7809127573032 317.2144176928739L1021.4006304428567 317.2144176928739L1021.4006304428567 289.9550294861084L1060.6905344351699 280.2425886933857L1060.6905344351699 317.2144176928739L1088.1553216919324 317.2144176928739L1088.1553216919324 320.99962875710725L1060.6905344351699 320.99962875710725L1060.6905344351699 392.21441366326434Q1060.6905344351699 402.13225350598424 1062.6858394922851 406.79774621306245Q1064.7104872708283 411.4338961987126 1071.0485150993122 411.4338961987126Q1077.3865429277957 411.4338961987126 1082.1400637991587 405.0958683702289Q1086.8935846705212 398.7578405417452 1088.3607207419295 387.7836627276114L1088.3607207419295 387.7836627276114L1091.969875477594 388.1944608276057Q1090.2679976347604 402.77779337740384 1082.6682327848657 411.31652531299994Q1075.0684679349706 419.8845999700242 1057.5215205209279 419.8845999700242Q1039.9745731068851 419.8845999700242 1030.702273135585 412.9010322701209Q1021.4006304428567 405.9468072916457 1021.4006304428567 387.54892095618607Z " fill="#065cbf" transform="matrix(0.8013042060645581,0,0,0.8013042060645583,0,23.642539560612136)"/></g></svg>